<svg width="18" height="18" viewBox="0 0 18 18" fill="none" xmlns="http://www.w3.org/2000/svg">
<path d="M7.25 8.33904C8.24375 7.80466 8.7625 6.99607 8.7625 5.73748C8.7625 3.25544 7.11875 2.65076 5.22188 2.65076H0V15.1101H5.36875C7.38125 15.1101 9.27188 14.0238 9.27188 11.4926C9.27188 9.9281 8.6125 8.77146 7.25 8.33904ZM2.43438 4.77771H4.71875C5.59688 4.77771 6.3875 5.05544 6.3875 6.20154C6.3875 7.25974 5.77187 7.68513 4.90312 7.68513H2.43438V4.77771ZM5.0375 12.9937H2.43438V9.56248H5.0875C6.15938 9.56248 6.8375 10.0652 6.8375 11.3414C6.8375 12.6 6.02812 12.9937 5.0375 12.9937ZM16.2406 4.53162H11.75V3.30466H16.2406V4.53162ZM18 10.7297C18 8.0613 16.6125 5.83591 14.0969 5.83591C11.6531 5.83591 9.99375 7.9031 9.99375 10.6101C9.99375 13.4191 11.5656 15.3457 14.0969 15.3457C16.0125 15.3457 17.2531 14.3754 17.85 12.3117H15.9062C15.6969 13.0816 14.8344 13.4894 14.1656 13.4894C12.875 13.4894 12.1969 12.6386 12.1969 11.1937H17.9813C17.9906 11.0461 18 10.8879 18 10.7297ZM12.2 9.63279C12.2719 8.44802 12.9719 7.70623 14.0281 7.70623C15.1344 7.70623 15.6906 8.43748 15.7844 9.63279H12.2Z" fill="white"/>
</svg>
