<svg width="19" height="18" viewBox="0 0 19 18" fill="none" xmlns="http://www.w3.org/2000/svg">
<g clip-path="url(#clip0_204_27)">
<path d="M16.7355 9.00001C16.7367 9.98787 16.5422 10.9662 16.1632 11.8785C15.7841 12.7907 15.2281 13.6188 14.5271 14.3149C13.8319 15.0089 13.0067 15.5591 12.0987 15.934C11.1908 16.3089 10.2178 16.5013 9.23548 16.5C5.09323 16.5 1.73548 13.1423 1.73548 9.00001C1.73286 7.07692 2.47156 5.22681 3.79798 3.83438C4.49786 3.09586 5.34107 2.50791 6.27603 2.10652C7.21098 1.70514 8.21801 1.49876 9.23548 1.50001C10.2178 1.49873 11.1908 1.69106 12.0987 2.066C13.0067 2.44093 13.8319 2.99113 14.5271 3.68513C15.2281 4.38122 15.7841 5.20931 16.1632 6.12156C16.5422 7.03381 16.7367 8.01214 16.7355 9.00001Z" stroke="white" stroke-width="1.5" stroke-linecap="round" stroke-linejoin="round"/>
<path d="M16.7355 8.99996C15.6412 8.99996 12.6225 8.58746 9.92058 9.77358C6.98546 11.0625 4.86033 13.062 3.93408 14.3051" stroke="white" stroke-width="1.5" stroke-linecap="round" stroke-linejoin="round"/>
<path d="M6.42297 2.04529C7.59672 3.12866 10.158 5.88679 11.1105 8.62504C12.063 11.3633 12.4155 14.73 12.633 15.6882" stroke="white" stroke-width="1.5" stroke-linecap="round" stroke-linejoin="round"/>
<path d="M1.79321 8.06252C3.20996 8.14802 6.96034 8.22489 9.36034 7.20002C11.7603 6.17514 13.8255 4.29002 14.5338 3.69189M2.29796 11.8549C2.95883 13.4546 4.15073 14.7777 5.67296 15.6015" stroke="white" stroke-width="1.5" stroke-linecap="round" stroke-linejoin="round"/>
<path d="M1.73548 9.00001C1.73286 7.07692 2.47156 5.22681 3.79798 3.83438C4.49786 3.09586 5.34107 2.50791 6.27603 2.10652C7.21098 1.70514 8.21801 1.49876 9.23548 1.50001M12.2355 2.12401C13.0896 2.49771 13.8667 3.0271 14.5271 3.68513C15.2281 4.38122 15.7841 5.20931 16.1632 6.12156C16.5422 7.03381 16.7367 8.01214 16.7355 9.00001C16.7355 9.92326 16.5686 10.8079 16.263 11.625M9.23548 16.5C10.2178 16.5013 11.1908 16.3089 12.0987 15.934C13.0067 15.5591 13.8319 15.0089 14.5271 14.3149" stroke="white" stroke-width="1.5" stroke-linecap="round" stroke-linejoin="round"/>
</g>
<defs>
<clipPath id="clip0_204_27">
<rect width="18" height="18" fill="white" transform="translate(0.235474)"/>
</clipPath>
</defs>
</svg>
