<svg width="17" height="16" viewBox="0 0 17 16" fill="none" xmlns="http://www.w3.org/2000/svg">
<path d="M8.56031 0.493774C7.55011 0.493774 6.5498 0.692749 5.61649 1.07934C4.68318 1.46592 3.83516 2.03256 3.12084 2.74688C1.6782 4.18952 0.867737 6.14615 0.867737 8.18635C0.867737 11.5865 3.07551 14.4712 6.12946 15.4943C6.51409 15.5558 6.63717 15.3174 6.63717 15.1097V13.8096C4.50633 14.2712 4.05246 12.7788 4.05246 12.7788C3.6986 11.8865 3.19859 11.648 3.19859 11.648C2.49856 11.1711 3.25244 11.1865 3.25244 11.1865C4.02169 11.2403 4.4294 11.9788 4.4294 11.9788C5.09865 13.1481 6.22946 12.8019 6.66794 12.6173C6.73717 12.1173 6.93718 11.7788 7.15257 11.5865C5.44482 11.3942 3.65245 10.7326 3.65245 7.80172C3.65245 6.94784 3.94477 6.26321 4.44478 5.71703C4.36786 5.52472 4.09862 4.72469 4.52171 3.68619C4.52171 3.68619 5.16789 3.47849 6.63717 4.47084C7.24488 4.3016 7.90644 4.21698 8.56031 4.21698C9.21418 4.21698 9.87574 4.3016 10.4835 4.47084C11.9527 3.47849 12.5989 3.68619 12.5989 3.68619C13.022 4.72469 12.7528 5.52472 12.6758 5.71703C13.1759 6.26321 13.4682 6.94784 13.4682 7.80172C13.4682 10.7403 11.6681 11.3865 9.95267 11.5788C10.2296 11.8172 10.4835 12.2865 10.4835 13.0019V15.1097C10.4835 15.3174 10.6065 15.5635 10.9989 15.4943C14.0528 14.4635 16.2529 11.5865 16.2529 8.18635C16.2529 7.17615 16.0539 6.17583 15.6673 5.24253C15.2807 4.30922 14.7141 3.4612 13.9998 2.74688C13.2855 2.03256 12.4374 1.46592 11.5041 1.07934C10.5708 0.692749 9.57052 0.493774 8.56031 0.493774Z" fill="white"/>
</svg>
