<svg width="15" height="16" viewBox="0 0 15 16" fill="none" xmlns="http://www.w3.org/2000/svg">
<path d="M13.3051 0.71228C13.7346 0.71228 14.1465 0.882904 14.4503 1.18662C14.754 1.49033 14.9246 1.90225 14.9246 2.33177V13.6682C14.9246 14.0977 14.754 14.5096 14.4503 14.8133C14.1465 15.1171 13.7346 15.2877 13.3051 15.2877H1.96867C1.53916 15.2877 1.12723 15.1171 0.82352 14.8133C0.519806 14.5096 0.349182 14.0977 0.349182 13.6682V2.33177C0.349182 1.90225 0.519806 1.49033 0.82352 1.18662C1.12723 0.882904 1.53916 0.71228 1.96867 0.71228H13.3051ZM12.9002 13.2633V8.97168C12.9002 8.27157 12.6221 7.60013 12.1271 7.10508C11.632 6.61003 10.9606 6.33191 10.2605 6.33191C9.57218 6.33191 8.77053 6.75298 8.38185 7.38458V6.48576H6.12266V13.2633H8.38185V9.27128C8.38185 8.64778 8.88389 8.13764 9.5074 8.13764C9.80806 8.13764 10.0964 8.25708 10.309 8.46968C10.5216 8.68228 10.641 8.97062 10.641 9.27128V13.2633H12.9002ZM3.49099 5.21446C3.85178 5.21446 4.1978 5.07114 4.45292 4.81602C4.70804 4.5609 4.85136 4.21488 4.85136 3.85409C4.85136 3.10103 4.24405 2.48562 3.49099 2.48562C3.12805 2.48562 2.77998 2.6298 2.52334 2.88644C2.2667 3.14307 2.12252 3.49115 2.12252 3.85409C2.12252 4.60715 2.73793 5.21446 3.49099 5.21446ZM4.61654 13.2633V6.48576H2.37354V13.2633H4.61654Z" fill="white"/>
</svg>
